# xmcd
#
# Track frame offsets: 
#        150
#        24336
#        44157
#
# Disc length: 842 seconds
#
# Revision: 0
# Processed by: cddbd v1.5.2PL0 Copyright (c) Steve Scherf et al.
# Submitted via: ExactAudioCopy v1.0b3
#
DISCID=20034803
DTITLE=茅原実里 - 会いたかった空
DYEAR=2015
DGENRE=
TTITLE0=会いたかった空
TTITLE1=凛の花
TTITLE2=ピエロ
EXTD=
EXTT0=
EXTT1=
EXTT2=
PLAYORDER=
